<svg width="136" height="32" viewBox="0 0 136 32" fill="none" xmlns="http://www.w3.org/2000/svg">
<path d="M19.2 19.2L12.8 12.8" stroke="#EA001C" stroke-width="2.66667" stroke-linecap="round" stroke-linejoin="round"/>
<path d="M24.876 28.6467C24.376 29.1469 23.6978 29.428 22.9905 29.4281C22.2832 29.4282 21.6049 29.1474 21.1047 28.6474C20.6045 28.1473 20.3234 27.4691 20.3233 26.7618C20.3232 26.0546 20.604 25.3762 21.104 24.876L18.748 27.2334C18.2478 27.7336 17.5694 28.0146 16.862 28.0146C16.1546 28.0146 15.4762 27.7336 14.976 27.2334C14.4758 26.7332 14.1948 26.0548 14.1948 25.3474C14.1948 24.64 14.4758 23.9616 14.976 23.4614L23.4614 14.976C23.9616 14.4758 24.64 14.1948 25.3474 14.1948C26.0548 14.1948 26.7332 14.4758 27.2334 14.976C27.7336 15.4762 28.0146 16.1546 28.0146 16.862C28.0146 17.5694 27.7336 18.2478 27.2334 18.748L24.876 21.104C25.3762 20.604 26.0546 20.3232 26.7618 20.3233C27.4691 20.3234 28.1473 20.6045 28.6474 21.1047C29.1474 21.6049 29.4282 22.2832 29.4281 22.9905C29.428 23.6978 29.1469 24.376 28.6467 24.876L24.876 28.6467Z" stroke="#EA001C" stroke-width="2.66667" stroke-linecap="round" stroke-linejoin="round"/>
<path d="M28.6667 28.6667L26.8 26.8" stroke="#EA001C" stroke-width="2.66667" stroke-linecap="round" stroke-linejoin="round"/>
<path d="M5.19992 5.20004L3.33325 3.33337" stroke="#EA001C" stroke-width="2.66667" stroke-linecap="round" stroke-linejoin="round"/>
<path d="M8.53876 17.024C8.03856 17.5242 7.36014 17.8052 6.65276 17.8052C5.94537 17.8052 5.26696 17.5242 4.76676 17.024C4.26656 16.5238 3.98555 15.8454 3.98555 15.138C3.98555 14.4306 4.26656 13.7522 4.76676 13.252L7.12409 10.896C6.87642 11.1436 6.5824 11.3399 6.25884 11.4739C5.93527 11.6079 5.58849 11.6768 5.23829 11.6767C4.53102 11.6766 3.85278 11.3955 3.35276 10.8953C3.10517 10.6476 2.90879 10.3536 2.77483 10.03C2.64088 9.70648 2.57196 9.3597 2.57202 9.0095C2.57215 8.30223 2.85323 7.62399 3.35342 7.12397L7.12409 3.3533C7.62411 2.8531 8.30236 2.57202 9.00962 2.5719C9.35982 2.57184 9.7066 2.64075 10.0302 2.77471C10.3537 2.90867 10.6478 3.10505 10.8954 3.35263C11.1431 3.60022 11.3396 3.89416 11.4737 4.21768C11.6077 4.5412 11.6768 4.88796 11.6768 5.23816C11.6769 5.58836 11.608 5.93515 11.474 6.25871C11.3401 6.58228 11.1437 6.8763 10.8961 7.12397L13.2521 4.76663C13.7523 4.26644 14.4307 3.98543 15.1381 3.98543C15.8455 3.98543 16.5239 4.26644 17.0241 4.76663C17.5243 5.26683 17.8053 5.94525 17.8053 6.65264C17.8053 7.36002 17.5243 8.03844 17.0241 8.53863L8.53876 17.024Z" stroke="#EA001C" stroke-width="2.66667" stroke-linecap="round" stroke-linejoin="round"/>
<path d="M41.536 24V10.296C41.536 9.512 41.656 8.856 41.896 8.328C42.136 7.8 42.456 7.384 42.856 7.08C43.256 6.776 43.696 6.56 44.176 6.432C44.656 6.304 45.128 6.24 45.592 6.24C46.168 6.24 46.88 6.248 47.728 6.264C48.592 6.264 49.504 6.288 50.464 6.336C51.44 6.384 52.376 6.456 53.272 6.552V9.528H46.576C46.08 9.528 45.704 9.664 45.448 9.936C45.208 10.192 45.088 10.536 45.088 10.968V13.992L52.12 14.184V16.992L45.088 17.184V24H41.536ZM55.1922 9.216C54.8562 9.216 54.6882 9.056 54.6882 8.736V6.384C54.6882 6.048 54.8562 5.88 55.1922 5.88H57.9282C58.0722 5.88 58.1842 5.928 58.2642 6.024C58.3442 6.12 58.3842 6.24 58.3842 6.384V8.736C58.3842 9.056 58.2322 9.216 57.9282 9.216H55.1922ZM54.7602 24V11.112H58.3122V24H54.7602ZM65.3374 24C64.3454 24 63.5374 23.856 62.9134 23.568C62.3054 23.28 61.8654 22.8 61.5934 22.128C61.3214 21.456 61.2014 20.552 61.2334 19.416L61.3534 13.968H59.3374V11.688L61.4734 11.112L61.9534 7.512H64.7614V11.112H67.7854V13.968H64.7614V19.392C64.7614 19.744 64.7934 20.032 64.8574 20.256C64.9214 20.48 65.0094 20.664 65.1214 20.808C65.2494 20.936 65.3934 21.032 65.5534 21.096C65.7134 21.16 65.8734 21.2 66.0334 21.216L67.6654 21.36V24H65.3374Z" fill="#F8F8F8"/>
<path d="M69.3376 24V6.24H76.8256C77.4016 6.24 77.9856 6.312 78.5776 6.456C79.1856 6.584 79.7376 6.856 80.2336 7.272C80.7456 7.672 81.1536 8.28 81.4576 9.096C81.7776 9.912 81.9376 10.992 81.9376 12.336C81.9376 13.68 81.7776 14.768 81.4576 15.6C81.1536 16.432 80.7536 17.064 80.2576 17.496C79.7616 17.928 79.2256 18.216 78.6496 18.36C78.0736 18.504 77.5136 18.576 76.9696 18.576C76.6816 18.576 76.3456 18.568 75.9616 18.552C75.5776 18.52 75.1856 18.48 74.7856 18.432C74.4016 18.384 74.0416 18.344 73.7056 18.312C73.3696 18.264 73.0976 18.224 72.8896 18.192V24H69.3376ZM72.8896 15.384H76.4176C76.8336 15.384 77.1856 15.288 77.4736 15.096C77.7776 14.888 78.0016 14.568 78.1456 14.136C78.2896 13.688 78.3616 13.096 78.3616 12.36C78.3616 11.64 78.2816 11.072 78.1216 10.656C77.9776 10.224 77.7616 9.912 77.4736 9.72C77.2016 9.528 76.8736 9.432 76.4896 9.432H72.8896V15.384ZM88.7614 24.12C87.7054 24.12 86.8014 24.016 86.0494 23.808C85.2974 23.584 84.6814 23.216 84.2014 22.704C83.7374 22.192 83.3934 21.512 83.1694 20.664C82.9614 19.816 82.8574 18.768 82.8574 17.52C82.8574 16.208 82.9614 15.128 83.1694 14.28C83.3934 13.416 83.7374 12.744 84.2014 12.264C84.6814 11.768 85.2974 11.424 86.0494 11.232C86.8174 11.024 87.7214 10.92 88.7614 10.92C89.8334 10.92 90.7454 11.024 91.4974 11.232C92.2494 11.44 92.8574 11.792 93.3214 12.288C93.8014 12.768 94.1454 13.44 94.3534 14.304C94.5774 15.152 94.6894 16.224 94.6894 17.52C94.6894 18.8 94.5854 19.872 94.3774 20.736C94.1694 21.584 93.8334 22.256 93.3694 22.752C92.9054 23.248 92.2894 23.6 91.5214 23.808C90.7694 24.016 89.8494 24.12 88.7614 24.12ZM88.7614 21.288C89.1934 21.288 89.5534 21.248 89.8414 21.168C90.1454 21.088 90.3854 20.928 90.5614 20.688C90.7534 20.432 90.8974 20.048 90.9934 19.536C91.0894 19.024 91.1374 18.352 91.1374 17.52C91.1374 16.672 91.0894 16 90.9934 15.504C90.8974 14.992 90.7534 14.616 90.5614 14.376C90.3854 14.12 90.1454 13.952 89.8414 13.872C89.5534 13.792 89.1934 13.752 88.7614 13.752C88.3454 13.752 87.9854 13.792 87.6814 13.872C87.3934 13.952 87.1534 14.12 86.9614 14.376C86.7694 14.616 86.6254 14.992 86.5294 15.504C86.4494 16 86.4094 16.672 86.4094 17.52C86.4094 18.352 86.4494 19.024 86.5294 19.536C86.6254 20.048 86.7694 20.432 86.9614 20.688C87.1534 20.928 87.3934 21.088 87.6814 21.168C87.9854 21.248 88.3454 21.288 88.7614 21.288ZM98.3054 24L94.8974 11.112H98.5694L100.609 20.712L103.153 11.112H106.081L108.625 20.712L110.473 11.112H114.145L110.785 24H106.849L104.545 16.152L102.169 24H98.3054ZM120.161 24.12C118.737 24.12 117.601 23.936 116.753 23.568C115.905 23.184 115.289 22.512 114.905 21.552C114.537 20.592 114.353 19.264 114.353 17.568C114.353 15.824 114.529 14.472 114.881 13.512C115.233 12.552 115.825 11.88 116.657 11.496C117.489 11.112 118.617 10.92 120.041 10.92C121.321 10.92 122.345 11.048 123.113 11.304C123.881 11.56 124.433 12.008 124.769 12.648C125.121 13.288 125.297 14.192 125.297 15.36C125.297 16.224 125.121 16.912 124.769 17.424C124.433 17.92 123.953 18.28 123.329 18.504C122.705 18.712 121.969 18.816 121.121 18.816H117.881C117.913 19.472 118.009 20 118.169 20.4C118.345 20.784 118.657 21.064 119.105 21.24C119.569 21.4 120.233 21.48 121.097 21.48H124.865V23.568C124.241 23.696 123.553 23.824 122.801 23.952C122.065 24.064 121.185 24.12 120.161 24.12ZM117.833 16.704H120.761C121.241 16.704 121.593 16.608 121.817 16.416C122.041 16.224 122.153 15.88 122.153 15.384C122.153 14.92 122.081 14.552 121.937 14.28C121.793 13.992 121.569 13.792 121.265 13.68C120.961 13.552 120.553 13.488 120.041 13.488C119.497 13.488 119.065 13.584 118.745 13.776C118.425 13.952 118.193 14.272 118.049 14.736C117.905 15.2 117.833 15.856 117.833 16.704ZM127.027 24V11.112H129.763L130.579 13.08C131.043 12.488 131.563 11.984 132.139 11.568C132.731 11.152 133.427 10.944 134.227 10.944C134.403 10.944 134.579 10.952 134.755 10.968C134.947 10.984 135.123 11.016 135.283 11.064V14.712C135.043 14.68 134.787 14.656 134.515 14.64C134.259 14.608 134.011 14.592 133.771 14.592C133.307 14.592 132.883 14.648 132.499 14.76C132.131 14.856 131.787 15.008 131.467 15.216C131.163 15.408 130.867 15.664 130.579 15.984V24H127.027Z" fill="#EA001C"/>
</svg>
